<svg width="24" height="24" viewBox="0 0 24 24" fill="none" xmlns="http://www.w3.org/2000/svg">
<g clip-path="url(#clip0_88_84)">
<path d="M9.79592 22.2C9.79592 22.25 9.80102 22.375 9.81122 22.575C9.82143 22.775 9.82398 22.9406 9.81888 23.0719C9.81378 23.2031 9.79847 23.35 9.77296 23.5125C9.74745 23.675 9.69643 23.7969 9.6199 23.8781C9.54337 23.9594 9.43878 24 9.30612 24H4.40816C3.19388 24 2.15561 23.4719 1.29337 22.4156C0.431122 21.3594 0 20.0875 0 18.6V5.4C0 3.9125 0.431122 2.64062 1.29337 1.58438C2.15561 0.528125 3.19388 0 4.40816 0H9.30612C9.43878 0 9.55357 0.059375 9.65051 0.178125C9.74745 0.296875 9.79592 0.4375 9.79592 0.6C9.79592 0.65 9.80102 0.775 9.81122 0.975C9.82143 1.175 9.82398 1.34063 9.81888 1.47188C9.81378 1.60313 9.79847 1.75 9.77296 1.9125C9.74745 2.075 9.69643 2.19688 9.6199 2.27813C9.54337 2.35938 9.43878 2.4 9.30612 2.4H4.40816C3.73469 2.4 3.15816 2.69375 2.67857 3.28125C2.19898 3.86875 1.95918 4.575 1.95918 5.4V18.6C1.95918 19.425 2.19898 20.1313 2.67857 20.7188C3.15816 21.3063 3.73469 21.6 4.40816 21.6H9.18367L9.35969 21.6188L9.53571 21.675L9.65816 21.7781L9.76531 21.9469L9.79592 22.2ZM24 12C24 12.325 23.9031 12.6063 23.7092 12.8438L15.3827 23.0438C15.1888 23.2812 14.9592 23.4 14.6939 23.4C14.4286 23.4 14.199 23.2812 14.0051 23.0438C13.8112 22.8063 13.7143 22.525 13.7143 22.2V16.8H6.85714C6.59184 16.8 6.36225 16.6813 6.16837 16.4438C5.97449 16.2063 5.87755 15.925 5.87755 15.6V8.4C5.87755 8.075 5.97449 7.79375 6.16837 7.55625C6.36225 7.31875 6.59184 7.2 6.85714 7.2H13.7143V1.8C13.7143 1.475 13.8112 1.19375 14.0051 0.95625C14.199 0.71875 14.4286 0.6 14.6939 0.6C14.9592 0.6 15.1888 0.71875 15.3827 0.95625L23.7092 11.1562C23.9031 11.3938 24 11.675 24 12Z" fill="white"/>
</g>
<defs>
<clipPath id="clip0_88_84">
<rect width="24" height="24" fill="white"/>
</clipPath>
</defs>
</svg>
