<svg width="20" height="20" viewBox="0 0 25 24" fill="none" xmlns="http://www.w3.org/2000/svg">
<g clip-path="url(#clip0_9_114)">
<mask id="mask0_9_114" style="mask-type:alpha" maskUnits="userSpaceOnUse" x="0" y="1" width="25" height="22">
<path d="M10 10C10.4596 10 10.9148 9.90947 11.3394 9.73358C11.764 9.55769 12.1499 9.29988 12.4749 8.97487C12.7999 8.64987 13.0577 8.26403 13.2336 7.83939C13.4095 7.41475 13.5 6.95963 13.5 6.5C13.5 6.04037 13.4095 5.58525 13.2336 5.16061C13.0577 4.73597 12.7999 4.35013 12.4749 4.02513C12.1499 3.70012 11.764 3.44231 11.3394 3.26642C10.9148 3.09053 10.4596 3 10 3C9.07174 3 8.1815 3.36875 7.52513 4.02513C6.86875 4.6815 6.5 5.57174 6.5 6.5C6.5 7.42826 6.86875 8.3185 7.52513 8.97487C8.1815 9.63125 9.07174 10 10 10ZM2.5 20.4V21H17.5V20.4C17.5 18.16 17.5 17.04 17.064 16.184C16.6805 15.4314 16.0686 14.8195 15.316 14.436C14.46 14 13.34 14 11.1 14H8.9C6.66 14 5.54 14 4.684 14.436C3.93139 14.8195 3.31949 15.4314 2.936 16.184C2.5 17.04 2.5 18.16 2.5 20.4Z" fill="white" stroke="white" stroke-width="4" stroke-linecap="round" stroke-linejoin="round"/>
<path fill-rule="evenodd" clip-rule="evenodd" d="M19.5 6.5V12.5V6.5ZM16.5 9.5H22.5H16.5Z" fill="white"/>
<path d="M19.5 6.5V12.5M16.5 9.5H22.5" stroke="white" stroke-width="4" stroke-linecap="round" stroke-linejoin="round"/>
</mask>
<g mask="url(#mask0_9_114)">
<path d="M0.5 0H24.5V24H0.5V0Z" fill="#333333"/>
</g>
</g>
<defs>
<clipPath id="clip0_9_114">
<rect width="24" height="24" fill="white" transform="translate(0.5)"/>
</clipPath>
</defs>
</svg>
